<svg width="24" height="24" viewBox="0 0 24 24" fill="none" xmlns="http://www.w3.org/2000/svg">
<path d="M12.2211 9.76114C11.7595 9.71555 11.295 9.81376 10.8914 10.0423C10.4877 10.2709 10.1646 10.6187 9.96616 11.038C9.76776 11.4573 9.70383 11.9277 9.7831 12.3848C9.86238 12.8418 10.081 13.2632 10.409 13.5912C10.737 13.9193 11.1584 14.1379 11.6155 14.2171C12.0726 14.2964 12.5429 14.2325 12.9623 14.0341C13.3816 13.8357 13.7294 13.5125 13.9579 13.1089C14.1865 12.7052 14.2847 12.2408 14.2391 11.7791C14.1871 11.2616 13.9578 10.778 13.59 10.4102C13.2223 10.0424 12.7387 9.81312 12.2211 9.76114V9.76114ZM17.6387 12.0002C17.6373 12.2448 17.6193 12.489 17.5849 12.7311L19.1743 13.9778C19.2436 14.0352 19.2902 14.1152 19.306 14.2037C19.3217 14.2922 19.3056 14.3834 19.2605 14.4612L17.7568 17.0627C17.7112 17.1397 17.6398 17.1981 17.5553 17.2277C17.4708 17.2572 17.3786 17.2559 17.2949 17.2241L15.7164 16.5885C15.6293 16.5538 15.535 16.5413 15.442 16.552C15.3489 16.5628 15.2599 16.5964 15.1831 16.65C14.9421 16.8159 14.689 16.9633 14.4258 17.0909C14.343 17.1311 14.2715 17.1911 14.2174 17.2655C14.1633 17.3399 14.1284 17.4265 14.1157 17.5177L13.8791 19.2013C13.8636 19.2902 13.8176 19.371 13.7491 19.4298C13.6807 19.4886 13.5939 19.5218 13.5036 19.5237H10.4964C10.4076 19.5221 10.322 19.4904 10.2537 19.4337C10.1854 19.3771 10.1384 19.2988 10.1206 19.2118L9.88431 17.5307C9.87104 17.4385 9.83521 17.3511 9.78001 17.2762C9.72481 17.2012 9.65195 17.1411 9.5679 17.1011C9.30501 16.9742 9.05271 16.8264 8.81345 16.6591C8.73684 16.6058 8.64817 16.5724 8.55544 16.5619C8.46271 16.5515 8.36882 16.5642 8.28224 16.599L6.70407 17.2343C6.62044 17.2662 6.52825 17.2675 6.44374 17.238C6.35924 17.2086 6.28784 17.1502 6.24212 17.0733L4.73849 14.4717C4.69328 14.394 4.67713 14.3028 4.6929 14.2142C4.70867 14.1257 4.75535 14.0457 4.82462 13.9883L6.16794 12.9336C6.24154 12.8752 6.29938 12.7993 6.33621 12.7129C6.37305 12.6265 6.38771 12.5322 6.37888 12.4386C6.36622 12.292 6.35849 12.1458 6.35849 11.9992C6.35849 11.8526 6.36587 11.7084 6.37888 11.565C6.38675 11.472 6.37136 11.3786 6.33411 11.293C6.29686 11.2074 6.23891 11.1325 6.16548 11.0749L4.82286 10.0202C4.75472 9.96262 4.70902 9.88285 4.69379 9.79492C4.67855 9.70698 4.69475 9.61649 4.73954 9.53931L6.24317 6.93774C6.28884 6.86075 6.36021 6.80234 6.44473 6.77282C6.52924 6.7433 6.62145 6.74456 6.70513 6.77638L8.28364 7.412C8.37069 7.44666 8.46498 7.45918 8.55806 7.44844C8.65113 7.43771 8.74009 7.40405 8.81696 7.35048C9.05787 7.18458 9.31102 7.03721 9.57423 6.90962C9.65698 6.8694 9.72855 6.80942 9.78263 6.73499C9.83671 6.66055 9.87163 6.57395 9.88431 6.48282L10.1209 4.79919C10.1364 4.71027 10.1824 4.62951 10.2509 4.57071C10.3194 4.51191 10.4061 4.47872 10.4964 4.47681H13.5036C13.5924 4.47834 13.678 4.51006 13.7463 4.56675C13.8146 4.62343 13.8616 4.70169 13.8795 4.78864L14.1157 6.46981C14.129 6.56195 14.1648 6.64937 14.22 6.72432C14.2752 6.79927 14.3481 6.85942 14.4321 6.89942C14.695 7.02632 14.9473 7.1741 15.1866 7.34134C15.2632 7.39464 15.3518 7.42804 15.4446 7.43854C15.5373 7.44903 15.6312 7.43629 15.7178 7.40145L17.2959 6.76618C17.3796 6.73433 17.4718 6.73302 17.5563 6.76248C17.6408 6.79193 17.7122 6.85026 17.7579 6.9272L19.2615 9.52876C19.3067 9.60648 19.3229 9.69773 19.3071 9.78625C19.2913 9.87478 19.2447 9.95483 19.1754 10.0122L17.8321 11.0668C17.7582 11.1251 17.7 11.2009 17.6628 11.2873C17.6257 11.3738 17.6107 11.4681 17.6194 11.5618C17.631 11.7074 17.6387 11.8536 17.6387 12.0002Z" stroke="#718096" stroke-width="1.5" stroke-linecap="round" stroke-linejoin="round"/>
</svg>
